<svg id="Layer_1" height="512" viewBox="0 0 128 128" width="512" xmlns="http://www.w3.org/2000/svg" data-name="Layer 1"><path d="m98.667 46.792h-69.334a1.75 1.75 0 0 0 -1.75 1.75v59.666a1.75 1.75 0 0 0 1.75 1.75h8.934.013 51.44.013 8.934a1.75 1.75 0 0 0 1.75-1.75v-59.666a1.75 1.75 0 0 0 -1.75-1.75zm-60.587 50.598c0-9.483 4.089-16.09 7.76-16.09 1.366 0 2.756.861 3.984 2.438a28.93 28.93 0 0 0 -3.134 13.652 32.337 32.337 0 0 0 1.241 9.068h-8.439a28.146 28.146 0 0 1 -1.412-9.068zm50.428 9.068h-12.708a28.025 28.025 0 0 1 -1.41-9.068c0-5 1.159-9.668 3.182-12.8 1.363-2.119 2.992-3.286 4.588-3.286 3.671 0 7.76 6.607 7.76 16.09a28.141 28.141 0 0 1 -1.412 9.064zm-16.377 0h-8.431a28.021 28.021 0 0 1 -1.41-9.068c0-5.009 1.159-9.678 3.179-12.809.793-1.226 2.443-3.281 4.581-3.281 1.7 0 3.078 1.292 3.973 2.44a28.936 28.936 0 0 0 -3.133 13.65 32.337 32.337 0 0 0 1.241 9.068zm-12.1 0h-8.431a28 28 0 0 1 -1.41-9.068c0-5 1.159-9.668 3.182-12.8.789-1.227 2.434-3.286 4.578-3.286 1.694 0 3.073 1.288 3.971 2.433a28.966 28.966 0 0 0 -3.131 13.653 32.332 32.332 0 0 0 1.241 9.068zm36.886 0h-4.742a32.4 32.4 0 0 0 1.245-9.068c0-10.986-4.946-19.59-11.26-19.59a8.272 8.272 0 0 0 -6.06 2.987 7.623 7.623 0 0 0 -12.1 0 8.276 8.276 0 0 0 -6.05-2.987 8.263 8.263 0 0 0 -6.05 2.986 8.273 8.273 0 0 0 -6.06-2.986c-6.314 0-11.26 8.6-11.26 19.59a32.412 32.412 0 0 0 1.245 9.068h-4.742v-56.166h65.834z"/><path d="m53.5 56.292h21a1.75 1.75 0 0 0 0-3.5h-21a1.75 1.75 0 0 0 0 3.5z"/><path d="m112.654 4.75h-97.308a1.75 1.75 0 0 0 -1.746 1.75v115a1.75 1.75 0 0 0 1.75 1.75h97.308a1.75 1.75 0 0 0 1.75-1.75v-115a1.75 1.75 0 0 0 -1.754-1.75zm-95.554 3.5h93.8v25.25h-93.8zm0 111.5v-82.75h93.8v82.75z"/><path d="m98.493 13.625a7.25 7.25 0 1 0 7.25 7.25 7.258 7.258 0 0 0 -7.25-7.25zm0 11a3.75 3.75 0 1 1 3.75-3.75 3.755 3.755 0 0 1 -3.75 3.75z"/><path d="m79.041 13.625a7.25 7.25 0 1 0 7.25 7.25 7.258 7.258 0 0 0 -7.25-7.25zm0 11a3.75 3.75 0 1 1 3.75-3.75 3.755 3.755 0 0 1 -3.75 3.75z"/><path d="m29.507 13.625a7.25 7.25 0 1 0 7.25 7.25 7.258 7.258 0 0 0 -7.25-7.25zm0 11a3.75 3.75 0 1 1 3.75-3.75 3.755 3.755 0 0 1 -3.75 3.75z"/></svg>