<svg id="Capa_1" enable-background="new 0 0 512 512" height="512" viewBox="0 0 512 512" width="512" xmlns="http://www.w3.org/2000/svg"><path d="m415.293 0h-318.586c-37.487 0-67.985 30.498-67.985 67.985v300.741c0 37.487 30.498 67.984 67.985 67.984h115.641v20.944c0 5.523 4.477 10 10 10s10-4.477 10-10v-20.944h47.305v65.29c0 5.523 4.477 10 10 10s10-4.477 10-10v-65.29h115.641c37.487 0 67.985-30.498 67.985-67.984v-300.741c-.001-37.487-30.499-67.985-67.986-67.985zm47.985 368.726c0 26.458-21.526 47.984-47.985 47.984h-318.586c-26.459 0-47.985-21.526-47.985-47.984v-300.741c0-26.459 21.526-47.985 47.985-47.985h318.587c26.459 0 47.985 21.526 47.985 47.985v300.741z"/><path d="m433.278 321.208c-5.523 0-10 4.477-10 10v35.276c0 5.639-4.587 10.226-10.226 10.226h-314.104c-5.639 0-10.226-4.587-10.226-10.226v-296.258c0-5.639 4.587-10.226 10.226-10.226h314.104c5.639 0 10.226 4.587 10.226 10.226v173.021c0 5.523 4.477 10 10 10s10-4.477 10-10v-173.021c0-16.667-13.56-30.226-30.226-30.226h-314.104c-16.667 0-30.226 13.559-30.226 30.226v296.259c0 16.667 13.56 30.226 30.226 30.226h314.104c16.667 0 30.226-13.56 30.226-30.226v-35.276c0-5.524-4.477-10.001-10-10.001z"/><path d="m207.526 102.861c-18.015 0-32.672 14.657-32.672 32.672v165.639c0 18.015 14.657 32.672 32.672 32.672s32.671-14.657 32.671-32.672v-43.697h35.512c20.844 0 40.398-8.199 55.061-23.087 14.658-14.884 22.555-34.565 22.237-55.418-.641-41.966-35.775-76.108-78.319-76.108h-67.162zm125.483 76.413c.236 15.454-5.62 30.042-16.489 41.079-10.874 11.041-25.367 17.121-40.811 17.121h-45.512c-5.523 0-10 4.477-10 10v53.697c0 6.987-5.685 12.672-12.671 12.672-6.987 0-12.672-5.685-12.672-12.672v-165.638c0-6.987 5.685-12.672 12.672-12.672h67.162c31.684 0 57.847 25.307 58.321 56.413z"/><path d="m220.197 158.204v43.927c0 5.523 4.477 10 10 10h45.512c17.625 0 31.963-14.339 31.963-31.963s-14.339-31.963-31.963-31.963h-45.512c-5.523-.001-10 4.476-10 9.999zm20 10h35.512c6.597 0 11.963 5.367 11.963 11.963s-5.367 11.963-11.963 11.963h-35.512z"/><path d="m442.51 283.51c-2.067-5.042-8.036-7.49-13.06-5.41-5.031 2.084-7.497 8.028-5.41 13.06 2.088 5.033 8.028 7.488 13.06 5.41 5.028-2.076 7.503-8.036 5.41-13.06z"/><path d="m231.58 498.18c-2.067-5.042-8.036-7.49-13.06-5.41-5.034 2.085-7.488 8.017-5.41 13.05 2.079 5.034 8.033 7.497 13.06 5.41 5.023-2.085 7.507-8.016 5.41-13.05z"/></svg>