<?xml version="1.0" encoding="iso-8859-1"?>
<!-- Generator: Adobe Illustrator 19.0.0, SVG Export Plug-In . SVG Version: 6.00 Build 0)  -->
<svg version="1.1" id="Capa_1" xmlns="http://www.w3.org/2000/svg" xmlns:xlink="http://www.w3.org/1999/xlink" x="0px" y="0px"
	 viewBox="0 0 512 512" style="enable-background:new 0 0 512 512;" xml:space="preserve">
<g>
	<g>
		<path d="M467,61H45C20.187,61,0,81.187,0,106v300c0,24.813,20.187,45,45,45h422c24.813,0,45-20.187,45-45V106
			C512,81.187,491.813,61,467,61z M482,406c0,8.271-6.729,15-15,15H45c-8.271,0-15-6.729-15-15V211h452V406z M482,181H30v-30h452
			V181z M482,121H30v-15c0-8.271,6.729-15,15-15h422c8.271,0,15,6.729,15,15V121z"/>
	</g>
</g>
<g>
	<g>
		<path d="M315,331h-30c-8.284,0-15,6.716-15,15s6.716,15,15,15h30c8.284,0,15-6.716,15-15S323.284,331,315,331z"/>
	</g>
</g>
<g>
	<g>
		<path d="M407,331h-30c-8.284,0-15,6.716-15,15s6.716,15,15,15h30c8.284,0,15-6.716,15-15S415.284,331,407,331z"/>
	</g>
</g>
<g>
	<g>
		<path d="M180,271c-10.917,0-21.152,2.945-29.981,8.061C140.959,273.82,130.633,271,120,271c-33.084,0-60,26.916-60,60
			s26.916,60,60,60c10.633,0,20.959-2.82,30.019-8.061C158.847,388.055,169.083,391,180,391c33.084,0,60-26.916,60-60
			S213.084,271,180,271z M127.518,360.038C125.083,360.667,122.56,361,120,361c-16.542,0-30-13.458-30-30s13.458-30,30-30
			c2.56,0,5.083,0.333,7.518,0.962C122.735,310.573,120,320.471,120,331S122.735,351.427,127.518,360.038z M180,361
			c-16.542,0-30-13.458-30-30s13.458-30,30-30s30,13.458,30,30S196.542,361,180,361z"/>
	</g>
</g>
<g>
</g>
<g>
</g>
<g>
</g>
<g>
</g>
<g>
</g>
<g>
</g>
<g>
</g>
<g>
</g>
<g>
</g>
<g>
</g>
<g>
</g>
<g>
</g>
<g>
</g>
<g>
</g>
<g>
</g>
</svg>
